<svg width="48" height="54" viewBox="0 0 48 54" fill="none" xmlns="http://www.w3.org/2000/svg">
<path d="M36.9885 25.9081L36.0055 29.8544L27.2995 36.1443L27.3495 47.8305L33.9885 47.8723L33.6155 39.4104C40.5375 35.0921 43.9985 31.9307 43.9985 29.9212V12.0299M10.9885 25.9829L12.0215 29.9222L20.3895 36.3198L20.7485 48L13.9885 47.8723L14.1915 39.8033C7.39747 35.9049 4.00146 32.938 4.00146 30.8986V12" stroke="black" stroke-width="4" stroke-linecap="round" stroke-linejoin="round"/>
<path fill-rule="evenodd" clip-rule="evenodd" d="M14 1.25C14 0.918476 14.1317 0.600535 14.3661 0.366115C14.6005 0.131696 14.9185 0 15.25 0H32.7499C33.0815 0 33.3994 0.131696 33.6338 0.366115C33.8682 0.600535 33.9999 0.918476 33.9999 1.25V23.7499C33.9999 23.9889 33.9315 24.2228 33.8026 24.4241C33.6738 24.6253 33.4899 24.7854 33.2729 24.8854C33.0558 24.9853 32.8147 25.021 32.578 24.9881C32.3413 24.9553 32.119 24.8552 31.9374 24.6999L30.6462 23.5937C30.4197 23.3997 30.1313 23.2931 29.8331 23.2931C29.5348 23.2931 29.2465 23.3997 29.02 23.5937L27.73 24.6987C27.5034 24.893 27.2147 24.9998 26.9162 24.9998C26.6177 24.9998 26.329 24.893 26.1025 24.6987L24.8137 23.5937C24.5871 23.3993 24.2985 23.2925 24 23.2925C23.7015 23.2925 23.4128 23.3993 23.1862 23.5937L21.8975 24.6987C21.6709 24.893 21.3822 24.9998 21.0837 24.9998C20.7852 24.9998 20.4966 24.893 20.27 24.6987L18.98 23.5937C18.7535 23.3997 18.4651 23.2931 18.1669 23.2931C17.8686 23.2931 17.5802 23.3997 17.3537 23.5937L16.0637 24.6987C15.8823 24.8543 15.66 24.9546 15.4232 24.9878C15.1864 25.0209 14.9451 24.9854 14.7279 24.8856C14.5107 24.7857 14.3266 24.6256 14.1976 24.4243C14.0686 24.2231 14 23.989 14 23.7499V1.25ZM20.25 4.99998C19.9185 4.99998 19.6005 5.13168 19.3661 5.3661C19.1317 5.60052 19 5.91846 19 6.24998C19 6.5815 19.1317 6.89944 19.3661 7.13386C19.6005 7.36828 19.9185 7.49998 20.25 7.49998H27.75C28.0815 7.49998 28.3994 7.36828 28.6338 7.13386C28.8683 6.89944 29 6.5815 29 6.24998C29 5.91846 28.8683 5.60052 28.6338 5.3661C28.3994 5.13168 28.0815 4.99998 27.75 4.99998H20.25ZM20.25 9.99997C19.9185 9.99997 19.6005 10.1317 19.3661 10.3661C19.1317 10.6005 19 10.9184 19 11.25C19 11.5815 19.1317 11.8994 19.3661 12.1338C19.6005 12.3683 19.9185 12.5 20.25 12.5H27.75C28.0815 12.5 28.3994 12.3683 28.6338 12.1338C28.8683 11.8994 29 11.5815 29 11.25C29 10.9184 28.8683 10.6005 28.6338 10.3661C28.3994 10.1317 28.0815 9.99997 27.75 9.99997H20.25ZM21.5 16.2499C21.5 15.9184 21.6317 15.6005 21.8661 15.3661C22.1005 15.1316 22.4185 15 22.75 15H27.75C28.0815 15 28.3994 15.1316 28.6338 15.3661C28.8683 15.6005 29 15.9184 29 16.2499C29 16.5815 28.8683 16.8994 28.6338 17.1338C28.3994 17.3682 28.0815 17.4999 27.75 17.4999H22.75C22.4185 17.4999 22.1005 17.3682 21.8661 17.1338C21.6317 16.8994 21.5 16.5815 21.5 16.2499Z" fill="black"/>
</svg>
