<svg width="48" height="54" viewBox="0 0 48 54" fill="none" xmlns="http://www.w3.org/2000/svg">
<path d="M36.9885 25.9081L36.0055 29.8544L27.2995 36.1443L27.3495 47.8305L33.9885 47.8723L33.6155 39.4104C40.5375 35.0921 43.9985 31.9307 43.9985 29.9212V12.0299M10.9885 25.9829L12.0215 29.9222L20.3895 36.3198L20.7485 48L13.9885 47.8723L14.1915 39.8033C7.39747 35.9049 4.00146 32.938 4.00146 30.8986V12" stroke="black" stroke-width="4" stroke-linecap="round" stroke-linejoin="round"/>
<path d="M23 13.1688L13.825 22.4629C12.6131 21.2464 11.6511 19.7987 10.9945 18.2035C10.338 16.6083 10 14.8971 10 13.1688C10 11.4405 10.338 9.72931 10.9945 8.13409C11.6511 6.53886 12.6131 5.0912 13.825 3.87472C18.8862 -1.29157 27.1008 -1.29157 32.1749 3.87472C37.275 9.00158 37.275 17.3229 32.1749 22.4629L23 13.1688ZM25.5954 22.3708C25.5954 21.6735 25.322 21.0048 24.8353 20.5117C24.3485 20.0187 23.6883 19.7417 23 19.7417C22.3116 19.7417 21.6515 20.0187 21.1647 20.5117C20.678 21.0048 20.4045 21.6735 20.4045 22.3708C20.4045 23.0681 20.678 23.7369 21.1647 24.2299C21.6515 24.723 22.3116 25 23 25C23.6883 25 24.3485 24.723 24.8353 24.2299C25.322 23.7369 25.5954 23.0681 25.5954 22.3708Z" fill="black"/>
</svg>
