<svg width="48" height="51" viewBox="0 0 48 51" fill="none" xmlns="http://www.w3.org/2000/svg">
<path d="M36.9885 26.9081L36.0055 30.8544L27.2995 37.1443L27.3495 48.8305L33.9885 48.8723L33.6155 40.4104C40.5375 36.0921 43.9985 32.9307 43.9985 30.9212V13.0299M10.9885 26.9829L12.0215 30.9222L20.3895 37.3198L20.7485 49L13.9885 48.8723L14.1915 40.8033C7.39747 36.9049 4.00146 33.938 4.00146 31.8986V13" stroke="black" stroke-width="4" stroke-linecap="round" stroke-linejoin="round"/>
<path d="M29.4756 1C26.9032 1 24.7052 2.94309 23.4975 4.2827C22.2899 2.94309 20.0968 1 17.5256 1C13.094 1 10 4.27359 10 8.95963C10 14.123 13.8426 17.4603 17.56 20.6884C19.315 22.214 21.1314 23.7903 22.5243 25.5383C22.7587 25.8309 23.1024 26 23.4632 26H23.5344C23.8964 26 24.2388 25.8296 24.472 25.5383C25.8674 23.7903 27.6825 22.2127 29.4388 20.6884C33.155 17.4616 37 14.1243 37 8.95963C37 4.27359 33.906 1 29.4756 1Z" fill="black"/>
</svg>
