<svg width="48" height="54" viewBox="0 0 48 54" fill="none" xmlns="http://www.w3.org/2000/svg">
<path d="M36.9885 25.9081L36.0055 29.8544L27.2995 36.1443L27.3495 47.8305L33.9885 47.8723L33.6155 39.4104C40.5375 35.0921 43.9985 31.9307 43.9985 29.9212V12.0299M10.9885 25.9829L12.0215 29.9222L20.3895 36.3198L20.7485 48L13.9885 47.8723L14.1915 39.8033C7.39747 35.9049 4.00146 32.938 4.00146 30.8986V12" stroke="black" stroke-width="4" stroke-linecap="round" stroke-linejoin="round"/>
<path d="M22.8453 8.66744C23.5814 7.34651 23.95 6.68605 24.5 6.68605C25.05 6.68605 25.4186 7.34651 26.1547 8.66744L26.3453 9.0093C26.5547 9.38488 26.6593 9.57209 26.8221 9.69535C26.9849 9.81977 27.1895 9.86628 27.5953 9.95814L27.9651 10.0419C29.3953 10.3651 30.1105 10.5267 30.2802 11.0744C30.4512 11.6209 29.9628 12.1907 28.9884 13.3314L28.736 13.6267C28.4593 13.95 28.3209 14.1128 28.2593 14.3128C28.1953 14.5128 28.2163 14.7291 28.2593 15.1616L28.2965 15.5547C28.4442 17.0756 28.5174 17.836 28.0721 18.1744C27.6267 18.5116 26.9581 18.2046 25.6186 17.5884L25.2721 17.4279C24.8919 17.2535 24.7023 17.1651 24.5 17.1651C24.2988 17.1651 24.1081 17.2535 23.7279 17.4279L23.3814 17.5884C22.0419 18.2046 21.3733 18.5128 20.9279 18.1744C20.4826 17.8372 20.5558 17.0756 20.7035 15.5547L20.7407 15.1616C20.7837 14.7291 20.8047 14.5128 20.7407 14.3128C20.6791 14.1128 20.5407 13.95 20.264 13.6267L20.0116 13.3314C19.0372 12.1919 18.5488 11.6221 18.7198 11.0744C18.8895 10.5279 19.6035 10.3651 21.0337 10.0419L21.4047 9.95814C21.8116 9.86512 22.014 9.81977 22.1779 9.69651C22.3407 9.57209 22.4453 9.38488 22.6547 9.01046L22.8453 8.66744Z" fill="black"/>
<path fill-rule="evenodd" clip-rule="evenodd" d="M24.5 0C24.7313 0 24.9531 0.091881 25.1167 0.25543C25.2802 0.418979 25.3721 0.6408 25.3721 0.872093V3.19767C25.3721 3.42897 25.2802 3.65079 25.1167 3.81434C24.9531 3.97789 24.7313 4.06977 24.5 4.06977C24.2687 4.06977 24.0469 3.97789 23.8833 3.81434C23.7198 3.65079 23.6279 3.42897 23.6279 3.19767V0.872093C23.6279 0.6408 23.7198 0.418979 23.8833 0.25543C24.0469 0.091881 24.2687 0 24.5 0ZM32.093 4.90698C32.2563 5.07049 32.3481 5.29215 32.3481 5.52326C32.3481 5.75436 32.2563 5.97602 32.093 6.13953L31.6942 6.53837C31.5289 6.69242 31.3102 6.77628 31.0843 6.7723C30.8583 6.76831 30.6428 6.67678 30.483 6.517C30.3232 6.35722 30.2317 6.14165 30.2277 5.91572C30.2237 5.68979 30.3076 5.47113 30.4616 5.30581L30.8605 4.90698C31.024 4.74366 31.2456 4.65193 31.4767 4.65193C31.7078 4.65193 31.9295 4.74366 32.093 4.90698ZM16.907 4.90698C17.0705 4.74366 17.2922 4.65193 17.5233 4.65193C17.7544 4.65193 17.976 4.74366 18.1395 4.90698L18.5395 5.30581C18.6983 5.47037 18.7861 5.6907 18.784 5.91936C18.7819 6.14802 18.6901 6.36671 18.5283 6.52833C18.3666 6.68995 18.1478 6.78156 17.9191 6.78344C17.6905 6.78532 17.4702 6.69731 17.3058 6.53837L16.907 6.13953C16.7437 5.97602 16.6519 5.75436 16.6519 5.52326C16.6519 5.29215 16.7437 5.07049 16.907 4.90698ZM12 12.5C12 12.2687 12.0919 12.0469 12.2554 11.8833C12.419 11.7198 12.6408 11.6279 12.8721 11.6279H15.1977C15.429 11.6279 15.6508 11.7198 15.8143 11.8833C15.9779 12.0469 16.0698 12.2687 16.0698 12.5C16.0698 12.7313 15.9779 12.9531 15.8143 13.1167C15.6508 13.2802 15.429 13.3721 15.1977 13.3721H12.8721C12.6408 13.3721 12.419 13.2802 12.2554 13.1167C12.0919 12.9531 12 12.7313 12 12.5ZM32.9302 12.5C32.9302 12.2687 33.0221 12.0469 33.1857 11.8833C33.3492 11.7198 33.571 11.6279 33.8023 11.6279H36.1279C36.3592 11.6279 36.581 11.7198 36.7446 11.8833C36.9081 12.0469 37 12.2687 37 12.5C37 12.7313 36.9081 12.9531 36.7446 13.1167C36.581 13.2802 36.3592 13.3721 36.1279 13.3721H33.8023C33.571 13.3721 33.3492 13.2802 33.1857 13.1167C33.0221 12.9531 32.9302 12.7313 32.9302 12.5ZM18.5384 18.4616C18.7017 18.6251 18.7934 18.8468 18.7934 19.0779C18.7934 19.309 18.7017 19.5307 18.5384 19.6942L18.1395 20.093C17.9742 20.2471 17.7556 20.3309 17.5296 20.3269C17.3037 20.323 17.0881 20.2314 16.9283 20.0717C16.7686 19.9119 16.677 19.6963 16.6731 19.4704C16.6691 19.2444 16.7529 19.0258 16.907 18.8605L17.3058 18.4616C17.4693 18.2983 17.691 18.2066 17.9221 18.2066C18.1532 18.2066 18.3749 18.2983 18.5384 18.4616ZM30.4605 18.4616C30.5415 18.3806 30.6376 18.3163 30.7435 18.2724C30.8493 18.2286 30.9628 18.206 31.0773 18.206C31.1919 18.206 31.3053 18.2286 31.4112 18.2724C31.517 18.3163 31.6132 18.3806 31.6942 18.4616L32.093 18.8605C32.2471 19.0258 32.3309 19.2444 32.3269 19.4704C32.323 19.6963 32.2314 19.9119 32.0717 20.0717C31.9119 20.2314 31.6963 20.323 31.4704 20.3269C31.2444 20.3309 31.0258 20.2471 30.8605 20.093L30.4616 19.6942C30.2983 19.5307 30.2066 19.309 30.2066 19.0779C30.2066 18.8468 30.2983 18.6251 30.4616 18.4616M24.5 20.9302C24.7313 20.9302 24.9531 21.0221 25.1167 21.1857C25.2802 21.3492 25.3721 21.571 25.3721 21.8023V24.1279C25.3721 24.3592 25.2802 24.581 25.1167 24.7446C24.9531 24.9081 24.7313 25 24.5 25C24.2687 25 24.0469 24.9081 23.8833 24.7446C23.7198 24.581 23.6279 24.3592 23.6279 24.1279V21.8023C23.6279 21.571 23.7198 21.3492 23.8833 21.1857C24.0469 21.0221 24.2687 20.9302 24.5 20.9302Z" fill="black"/>
</svg>
