<svg width="48" height="54" viewBox="0 0 48 54" fill="none" xmlns="http://www.w3.org/2000/svg">
<path d="M36.9885 25.9081L36.0055 29.8544L27.2995 36.1443L27.3495 47.8305L33.9885 47.8723L33.6155 39.4104C40.5375 35.0921 43.9985 31.9307 43.9985 29.9212V12.0299M10.9885 25.9829L12.0215 29.9222L20.3895 36.3198L20.7485 48L13.9885 47.8723L14.1915 39.8033C7.39747 35.9049 4.00146 32.938 4.00146 30.8986V12" stroke="black" stroke-width="4" stroke-linecap="round" stroke-linejoin="round"/>
<path d="M30.6099 0C30.2727 1.8135 30.9681 2.91049 32.3273 3.54781C32.5696 3.985 32.7698 4.41951 32.9278 4.85295C32.1218 3.94219 31.1736 3.49858 29.8724 4.15088C30.6151 5.62887 31.7478 5.88572 33.1122 5.40412C33.4388 6.52786 33.5178 7.63019 33.4441 8.74323C33.4441 8.75393 33.4441 8.76464 33.4388 8.77534C33.4915 8.80744 33.5442 8.8342 33.5916 8.86631C33.8497 9.02149 34.1026 9.18202 34.3449 9.34256C34.366 9.16597 34.3818 8.98403 34.3923 8.80744C34.4555 7.86564 34.4134 6.91314 34.2185 5.94458C35.6303 6.21749 36.4837 5.48439 37 4.14553C35.7251 4.0064 34.6347 4.21081 34.0868 5.37201C33.9498 4.869 33.7707 4.36065 33.5442 3.84908C34.7927 3.00092 35.5302 1.91892 34.9139 0.230634C33.7286 0.687087 33.1491 1.41484 33.0016 2.34273C32.7592 1.17297 32.1007 0.299129 30.6099 0ZM21.0589 2.15223C20.6744 3.23637 20.3056 4.68707 20.0738 6.12117C19.9052 7.18605 19.7946 8.24557 19.7735 9.16597C21.375 10.5519 23.1082 11.5526 25.031 11.6435C23.282 8.8342 21.7122 5.22218 21.0589 2.15223ZM14.0061 4.26968C14.1683 8.30444 15.6934 13.8322 19.8367 16.7485L20.1265 16.9519L20.0211 17.289C19.8526 17.8295 19.6102 18.3057 19.2309 18.6696C18.8464 19.0335 18.3406 19.2689 17.719 19.3813C16.5337 19.5953 14.8669 19.4241 12.3514 18.9693C11.8457 20.2589 11.9147 21.6769 12.3741 22.8274C12.8334 23.9672 13.6537 24.786 14.5919 25C15.901 23.2983 17.8718 21.2328 20.5743 21.3559C23.3137 21.4789 26.4481 20.7084 28.313 18.8087C28.9715 18.1452 29.5352 16.5452 29.8618 15.1378C30.1884 13.7305 30.3201 12.5158 30.3201 12.5158L30.3517 12.1894L30.6678 12.1037C31.8057 11.8041 33.1754 11.5312 34.7084 10.7446C34.2554 10.4342 33.7233 10.0703 33.1069 9.69573C32.1639 9.12851 31.1261 8.63621 30.6151 8.57734C29.7407 8.48638 29.2455 8.64691 28.903 8.90377C28.5659 9.16062 28.3446 9.5566 28.1497 10.0329C27.9601 10.5091 27.8126 11.0496 27.5491 11.5365C27.2805 12.0288 26.8116 12.489 26.1373 12.5639C23.1872 12.9118 20.6691 11.3385 18.5566 9.34791C16.8182 7.71046 15.3126 5.77335 14.0061 4.26968ZM33.8181 12.1894C33.4441 12.3285 33.0859 12.4516 32.7434 12.5532C32.6486 12.9225 32.5485 13.2917 32.4484 13.6609L33.3651 13.9178C33.5231 13.3452 33.6759 12.7673 33.8181 12.1894Z" fill="black"/>
</svg>
