<svg width="48" height="54" viewBox="0 0 48 54" fill="none" xmlns="http://www.w3.org/2000/svg">
<path d="M36.9885 25.9081L36.0055 29.8544L27.2995 36.1443L27.3495 47.8305L33.9885 47.8723L33.6155 39.4104C40.5375 35.0921 43.9985 31.9307 43.9985 29.9212V12.0299M10.9885 25.9829L12.0215 29.9222L20.3895 36.3198L20.7485 48L13.9885 47.8723L14.1915 39.8033C7.39747 35.9049 4.00146 32.938 4.00146 30.8986V12" stroke="black" stroke-width="4" stroke-linecap="round" stroke-linejoin="round"/>
<path d="M34 8.48214V11.1607C34 11.6343 33.8084 12.0885 33.4675 12.4234C33.1265 12.7583 32.664 12.9464 32.1818 12.9464H27.1818V23.2143C27.1818 23.6879 26.9903 24.1421 26.6493 24.477C26.3083 24.8119 25.8458 25 25.3636 25H22.6364C22.1542 25 21.6917 24.8119 21.3507 24.477C21.0097 24.1421 20.8182 23.6879 20.8182 23.2143V12.9464H15.8182C15.336 12.9464 14.8735 12.7583 14.5325 12.4234C14.1916 12.0885 14 11.6343 14 11.1607V8.48214C14 8.00854 14.1916 7.55434 14.5325 7.21945C14.8735 6.88457 15.336 6.69643 15.8182 6.69643H20.8182V1.78571C20.8182 1.31211 21.0097 0.85791 21.3507 0.523024C21.6917 0.188137 22.1542 0 22.6364 0H25.3636C25.8458 0 26.3083 0.188137 26.6493 0.523024C26.9903 0.85791 27.1818 1.31211 27.1818 1.78571V6.69643H32.1818C32.664 6.69643 33.1265 6.88457 33.4675 7.21945C33.8084 7.55434 34 8.00854 34 8.48214Z" fill="black"/>
</svg>
