<svg width="48" height="54" viewBox="0 0 48 54" fill="none" xmlns="http://www.w3.org/2000/svg">
<path d="M36.9885 25.9081L36.0055 29.8544L27.2995 36.1443L27.3495 47.8305L33.9885 47.8723L33.6155 39.4104C40.5375 35.0921 43.9985 31.9307 43.9985 29.9212V12.0299M10.9885 25.9829L12.0215 29.9222L20.3895 36.3198L20.7485 48L13.9885 47.8723L14.1915 39.8033C7.39747 35.9049 4.00146 32.938 4.00146 30.8986V12" stroke="black" stroke-width="4" stroke-linecap="round" stroke-linejoin="round"/>
<path d="M29.8391 3.125C29.8391 2.2962 29.5054 1.50134 28.9113 0.915291C28.3172 0.32924 27.5115 0 26.6713 0C25.8311 0 25.0254 0.32924 24.4313 0.915291C23.8372 1.50134 23.5035 2.2962 23.5035 3.125C23.5035 3.9538 23.8372 4.74866 24.4313 5.33471C25.0254 5.92076 25.8311 6.25 26.6713 6.25C27.5115 6.25 28.3172 5.92076 28.9113 5.33471C29.5054 4.74866 29.8391 3.9538 29.8391 3.125ZM23.9341 12.8906L25.0676 14.4287C25.3893 14.8633 25.8744 15.1465 26.4139 15.2148C26.9534 15.2832 27.4979 15.1318 27.9186 14.79L32.2744 11.2744C33.1208 10.5908 33.2445 9.36035 32.5516 8.52539C31.8586 7.69043 30.6113 7.56836 29.7649 8.25195L27.0326 10.459L25.7358 8.70117C24.9686 7.65137 23.7312 7.03125 22.4145 7.03125C20.8851 7.03125 19.4843 7.86621 18.7715 9.19922L16.366 13.7158C15.3661 15.5957 15.9007 17.9102 17.6331 19.1748L20.2664 21.0938H15.9799C14.886 21.0938 14 21.9678 14 23.0469C14 24.126 14.886 25 15.9799 25H26.2753C27.1316 25 27.8889 24.458 28.1562 23.6572C28.4235 22.8564 28.1414 21.9775 27.4534 21.4746L21.7067 17.2852L23.9341 12.8906Z" fill="black"/>
</svg>
