<svg width="48" height="51" viewBox="0 0 48 51" fill="none" xmlns="http://www.w3.org/2000/svg">
<path d="M36.9885 25.9081L36.0055 29.8544L27.2995 36.1443L27.3495 47.8305L33.9885 47.8723L33.6155 39.4104C40.5375 35.0921 43.9985 31.9307 43.9985 29.9212V12.0299M10.9885 25.9829L12.0215 29.9222L20.3895 36.3198L20.7485 48L13.9885 47.8723L14.1915 39.8033C7.39747 35.9049 4.00146 32.938 4.00146 30.8986V12" stroke="black" stroke-width="4" stroke-linecap="round" stroke-linejoin="round"/>
<path d="M25.3351 0.213935C25.2174 0.119035 25.078 0.0529693 24.9285 0.0213075C24.779 -0.0103542 24.6238 -0.00668402 24.4761 0.0320086C24.3283 0.0707013 24.1923 0.143282 24.0796 0.243633C23.9668 0.343983 23.8806 0.469161 23.8281 0.608613L21.2031 7.60056L18.3204 4.89105C18.2236 4.79997 18.108 4.72982 17.9812 4.68523C17.8544 4.64064 17.7193 4.62261 17.5848 4.63234C17.4503 4.64208 17.3195 4.67935 17.2009 4.74169C17.0823 4.80404 16.9787 4.89005 16.8969 4.99406C14.3125 8.27881 13 11.5832 13 14.8147C13 17.516 14.1062 20.1067 16.0754 22.0168C18.0445 23.9269 20.7152 25 23.5 25C26.2848 25 28.9555 23.9269 30.9246 22.0168C32.8938 20.1067 34 17.516 34 14.8147C34 7.9339 27.9398 2.31464 25.3351 0.213935ZM30.1687 15.8958C29.9212 17.2369 29.256 18.4722 28.2628 19.4355C27.2695 20.3988 25.9958 21.0437 24.6132 21.2835C24.5608 21.2922 24.5077 21.2965 24.4545 21.2963C24.2151 21.2962 23.9844 21.2089 23.8083 21.0515C23.6321 20.8942 23.5233 20.6785 23.5035 20.447C23.4837 20.2155 23.5543 19.9853 23.7013 19.8019C23.8482 19.6186 24.0609 19.4955 24.297 19.4571C26.2741 19.1342 27.9518 17.5069 28.287 15.5856C28.3294 15.3434 28.4693 15.1274 28.6758 14.9853C28.8824 14.8431 29.1387 14.7863 29.3884 14.8275C29.638 14.8686 29.8606 15.0043 30.0072 15.2046C30.1538 15.405 30.2123 15.6536 30.1699 15.8958H30.1687Z" fill="black"/>
</svg>
